<svg id="Layer_1" enable-background="new 0 0 511.614 511.614" height="512" viewBox="0 0 511.614 511.614" width="512" xmlns="http://www.w3.org/2000/svg"><g><path d="m496.614 120.222h-112.04v-105.18c0-8.284-6.716-15-15-15h-258.53c-8.284 0-15 6.716-15 15v207.639h-81.044c-8.284 0-15 6.716-15 15v258.892c0 8.284 6.716 15 15 15h354.574c.666 0 1.317-.058 1.96-.143h125.08c8.284 0 15-6.716 15-15v-361.208c0-8.284-6.716-15-15-15zm-274.525 291.117h57.772v70.091h-57.772zm87.772 70.091v-70.091h84.853v70.091zm-87.772-100.091v-30.979h259.525v30.979zm259.525-60.98h-259.525v-38.651h81.249c8.284 0 15-6.716 15-15v-116.486h163.276zm-355.57-290.317h228.53v90.18h-51.236c-8.284 0-15 6.716-15 15v116.486h-66.249v-14.027c0-8.284-6.716-15-15-15h-81.045zm-96.044 451.53v-228.891h162.089v228.892h-162.089zm394.714-.142v-70.091h56.9v70.091z"/><path d="m79.143 288.412c-8.284 0-15 6.716-15 15v24.827c0 8.284 6.716 15 15 15s15-6.716 15-15v-24.827c0-8.284-6.716-15-15-15z"/><path d="m142.945 288.412c-8.284 0-15 6.716-15 15v24.827c0 8.284 6.716 15 15 15s15-6.716 15-15v-24.827c0-8.284-6.716-15-15-15z"/><path d="m79.143 378.971c-8.284 0-15 6.716-15 15v24.828c0 8.284 6.716 15 15 15s15-6.716 15-15v-24.828c0-8.284-6.716-15-15-15z"/><path d="m142.945 378.971c-8.284 0-15 6.716-15 15v24.828c0 8.284 6.716 15 15 15s15-6.716 15-15v-24.828c0-8.284-6.716-15-15-15z"/><path d="m347.181 194.451v72.257c0 8.284 6.716 15 15 15h72.257c8.284 0 15-6.716 15-15v-72.257c0-8.284-6.716-15-15-15h-72.257c-8.285 0-15 6.716-15 15zm30 15h42.257v42.257h-42.257z"/><ellipse cx="171.421" cy="72.226" rx="14.998" ry="14.952"/><ellipse cx="240.309" cy="72.226" rx="14.998" ry="14.952"/><path d="m309.198 87.179c8.283 0 14.999-6.694 14.999-14.952s-6.715-14.952-14.999-14.952-14.998 6.694-14.998 14.952 6.714 14.952 14.998 14.952z"/><ellipse cx="171.421" cy="127.857" rx="14.998" ry="14.952"/><ellipse cx="240.309" cy="127.857" rx="14.998" ry="14.952"/><ellipse cx="171.421" cy="183.487" rx="14.998" ry="14.952"/><ellipse cx="240.309" cy="183.487" rx="14.998" ry="14.952"/></g></svg>