<svg id="Layer_1" enable-background="new 0 0 256 256" height="512" viewBox="0 0 256 256" width="512" xmlns="http://www.w3.org/2000/svg"><g><g><path d="m222.193 216.116h-188.386c-6.6 0-12-5.4-12-12v-163.777c0-6.6 5.4-12 12-12h188.386c6.6 0 12 5.4 12 12v163.777c0 6.6-5.4 12-12 12z" fill="#63bce7"/><g><path d="m39.866 204.116v-163.777c0-6.6 5.4-12 12-12h-18.059c-6.6 0-12 5.4-12 12v163.777c0 6.6 5.4 12 12 12h18.059c-6.6 0-12-5.4-12-12z" fill="#6377e7"/></g><g><path d="m216.134 204.116v-163.777c0-6.6-5.4-12-12-12h18.059c6.6 0 12 5.4 12 12v163.777c0 6.6-5.4 12-12 12h-18.059c6.6 0 12-5.4 12-12z" fill="#67dceb"/></g><g><path d="m234.193 40.339c0-6.6-5.4-12-12-12h-188.386c-6.6 0-12 5.4-12 12v27.597h212.386z" fill="#f46275"/></g><g><path d="m51.866 28.339h-18.059c-6.6 0-12 5.4-12 12v27.596h18.059v-27.596c0-6.6 5.4-12 12-12z" fill="#f43075"/></g><g><path d="m204.134 28.339h18.059c6.6 0 12 5.4 12 12v27.596h-18.059v-27.596c0-6.6-5.4-12-12-12z" fill="#f48875"/></g><g><g fill="#f8af23"><circle cx="46.732" cy="48.137" r="8.28"/><circle cx="72.112" cy="48.137" r="8.28"/><circle cx="97.492" cy="48.137" r="8.28"/></g><path d="m213.923 51.72h-44.25c-1.994 0-3.625-1.631-3.625-3.625 0-1.994 1.631-3.625 3.625-3.625h44.25c1.994 0 3.625 1.631 3.625 3.625 0 1.994-1.631 3.625-3.625 3.625z" fill="#9e9e9e"/></g></g><path d="m59.666 162.805h19.668v53.311h-19.668z" fill="#f46275"/><path d="m98.666 149.676h19.668v66.44h-19.668z" fill="#f8af23"/><path d="m137.666 136.547h19.668v79.569h-19.668z" fill="#9e9e9e"/><g><g><path d="m59.666 92.717h73.22v8.25h-73.22z" fill="#f8af23"/><path d="m144.573 92.717h51.761v8.25h-51.761z" fill="#9e9e9e"/></g><g><path d="m137.666 111.967h19.668v8.25h-19.668z" fill="#f8af23" transform="matrix(-1 0 0 -1 295 232.185)"/><path d="m99.304 111.967h28.434v8.25h-28.434z" fill="#9e9e9e" transform="matrix(-1 0 0 -1 227.041 232.185)"/><path d="m59.666 111.967h28.434v8.25h-28.434z" fill="#63bce7" transform="matrix(-1 0 0 -1 147.766 232.185)"/></g><g><path d="m59.666 131.217h58.668v8.25h-58.668z" fill="#f8af23"/></g></g><path d="m174.1 216.116v-88.456c0-.476-.386-.862-.862-.862h-4.154c-.768 0-1.152-.928-.609-1.471l17.416-17.416c.337-.336.882-.336 1.219 0l17.416 17.416c.543.543.158 1.471-.609 1.471h-4.154c-.476 0-.862.386-.862.862v88.455h-24.801z" fill="#f46275"/><g fill="#3f3679"><path d="m27.7 226.161h-18.172c-.828 0-1.5.671-1.5 1.5s.672 1.5 1.5 1.5h18.172c.828 0 1.5-.671 1.5-1.5s-.672-1.5-1.5-1.5z"/><path d="m246.472 226.161h-18.172c-.828 0-1.5.671-1.5 1.5s.672 1.5 1.5 1.5h18.172c.828 0 1.5-.671 1.5-1.5s-.672-1.5-1.5-1.5z"/><path d="m213.788 226.161h-171.576c-.828 0-1.5.671-1.5 1.5s.672 1.5 1.5 1.5h171.576c.828 0 1.5-.671 1.5-1.5s-.672-1.5-1.5-1.5z"/><path d="m247.972 216.116c0-.829-.672-1.5-1.5-1.5h-15.812c3.066-2.477 5.033-6.261 5.033-10.5v-136.181-27.596c0-7.444-6.056-13.5-13.5-13.5h-188.386c-7.444 0-13.5 6.056-13.5 13.5v27.596 136.181c0 4.239 1.968 8.023 5.033 10.5h-15.812c-.828 0-1.5.671-1.5 1.5s.672 1.5 1.5 1.5h24.278 25.859 19.668 19.332 19.668 19.332 19.668 16.767 24.8 23.293 24.278c.829 0 1.501-.672 1.501-1.5zm-224.665-175.777c0-5.79 4.71-10.5 10.5-10.5h188.387c5.79 0 10.5 4.71 10.5 10.5v26.096h-209.387zm37.859 174.277v-50.311h16.668v50.311zm39 0v-63.44h16.668v63.44zm39 0v-76.569h16.668v76.569zm36.434 0v-86.955c0-1.302-1.06-2.362-2.361-2.362h-2.613l15.875-15.875 15.875 15.875h-2.613c-1.302 0-2.361 1.06-2.361 2.362v86.955zm24.8 0v-86.317h3.516c.959 0 1.815-.572 2.182-1.458.367-.885.166-1.896-.512-2.573l-17.417-17.417c-.92-.919-2.417-.919-3.339.001l-17.416 17.416c-.678.678-.879 1.688-.512 2.573.366.886 1.223 1.458 2.182 1.458h3.516v86.317h-13.766v-78.069c0-.829-.672-1.5-1.5-1.5h-19.668c-.828 0-1.5.671-1.5 1.5v78.069h-16.332v-64.94c0-.829-.672-1.5-1.5-1.5h-19.668c-.828 0-1.5.671-1.5 1.5v64.94h-16.332v-51.811c0-.829-.672-1.5-1.5-1.5h-19.668c-.828 0-1.5.671-1.5 1.5v51.811h-24.359c-5.79 0-10.5-4.71-10.5-10.5v-120.415h53.443c.828 0 1.5-.671 1.5-1.5s-.672-1.5-1.5-1.5h-53.443v-11.266h209.387v134.681c0 5.79-4.71 10.5-10.5 10.5z"/><path d="m46.732 38.356c-5.393 0-9.78 4.388-9.78 9.781s4.388 9.78 9.78 9.78 9.78-4.387 9.78-9.78-4.387-9.781-9.78-9.781zm0 16.561c-3.738 0-6.78-3.042-6.78-6.78s3.042-6.781 6.78-6.781 6.78 3.042 6.78 6.781-3.041 6.78-6.78 6.78z"/><path d="m72.112 38.356c-5.393 0-9.78 4.388-9.78 9.781s4.388 9.78 9.78 9.78 9.78-4.387 9.78-9.78-4.387-9.781-9.78-9.781zm0 16.561c-3.738 0-6.78-3.042-6.78-6.78s3.042-6.781 6.78-6.781 6.78 3.042 6.78 6.781-3.041 6.78-6.78 6.78z"/><path d="m97.492 38.356c-5.394 0-9.781 4.388-9.781 9.781s4.388 9.78 9.781 9.78 9.78-4.387 9.78-9.78-4.387-9.781-9.78-9.781zm0 16.561c-3.739 0-6.781-3.042-6.781-6.78s3.042-6.781 6.781-6.781c3.738 0 6.78 3.042 6.78 6.781s-3.042 6.78-6.78 6.78z"/><path d="m213.923 42.97h-44.25c-2.826 0-5.125 2.299-5.125 5.125s2.299 5.125 5.125 5.125h44.25c2.826 0 5.125-2.299 5.125-5.125s-2.299-5.125-5.125-5.125zm0 7.25h-44.25c-1.172 0-2.125-.953-2.125-2.125s.953-2.125 2.125-2.125h44.25c1.172 0 2.125.953 2.125 2.125s-.953 2.125-2.125 2.125z"/><path d="m87.75 83.701h6.75c.828 0 1.5-.671 1.5-1.5s-.672-1.5-1.5-1.5h-6.75c-.828 0-1.5.671-1.5 1.5s.672 1.5 1.5 1.5z"/><path d="m132.887 91.217h-73.221c-.828 0-1.5.671-1.5 1.5v8.25c0 .829.672 1.5 1.5 1.5h73.221c.828 0 1.5-.671 1.5-1.5v-8.25c0-.828-.672-1.5-1.5-1.5zm-1.5 8.25h-70.221v-5.25h70.221z"/><path d="m196.334 91.217h-51.761c-.828 0-1.5.671-1.5 1.5v8.25c0 .829.672 1.5 1.5 1.5h51.761c.828 0 1.5-.671 1.5-1.5v-8.25c0-.828-.672-1.5-1.5-1.5zm-1.5 8.25h-48.761v-5.25h48.761z"/><path d="m157.334 110.467h-19.668c-.828 0-1.5.671-1.5 1.5v8.25c0 .829.672 1.5 1.5 1.5h19.668c.828 0 1.5-.671 1.5-1.5v-8.25c0-.828-.672-1.5-1.5-1.5zm-1.5 8.25h-16.668v-5.25h16.668z"/><path d="m127.737 110.467h-28.433c-.828 0-1.5.671-1.5 1.5v8.25c0 .829.672 1.5 1.5 1.5h28.434c.828 0 1.5-.671 1.5-1.5v-8.25c-.001-.828-.673-1.5-1.501-1.5zm-1.5 8.25h-25.434v-5.25h25.434z"/><path d="m59.666 121.717h28.434c.828 0 1.5-.671 1.5-1.5v-8.25c0-.829-.672-1.5-1.5-1.5h-28.434c-.828 0-1.5.671-1.5 1.5v8.25c0 .829.672 1.5 1.5 1.5zm1.5-8.25h25.434v5.25h-25.434z"/><path d="m118.334 129.717h-58.668c-.828 0-1.5.671-1.5 1.5v8.25c0 .829.672 1.5 1.5 1.5h58.668c.828 0 1.5-.671 1.5-1.5v-8.25c0-.828-.672-1.5-1.5-1.5zm-1.5 8.25h-55.668v-5.25h55.668z"/></g></g></svg>