<svg id="Layer_5" enable-background="new 0 0 64 64" height="512" viewBox="0 0 64 64" width="512" xmlns="http://www.w3.org/2000/svg"><g><g><g><path d="m20 60v2h-14v-2c0-1.1.9-2 2-2h2 6 2c1.1 0 2 .9 2 2z" fill="#b27946"/></g><g><path d="m58 60v2h-14v-2c0-1.1.9-2 2-2h2 6 2c1.1 0 2 .9 2 2z" fill="#b27946"/></g><g><path d="m10 54h6v4h-6z" fill="#cf9e76"/></g><g><path d="m48 54h6v4h-6z" fill="#cf9e76"/></g><g><path d="m58 54h-52c-2.209 0-4-1.791-4-4v-26c0-2.209 1.791-4 4-4h52c2.209 0 4 1.791 4 4v26c0 2.209-1.791 4-4 4z" fill="#ccd1d9"/></g><g><path d="m57 50h-50c-.552 0-1-.448-1-1v-24c0-.552.448-1 1-1h50c.552 0 1 .448 1 1v24c0 .552-.448 1-1 1z" fill="#69d6f4"/></g><g><path d="m48.96 43.99c-1.99-2.4-4.47-4.37-7.29-5.75-2.92-1.44-6.2-2.24-9.67-2.24s-6.75.8-9.67 2.24c-2.82 1.38-5.3 3.35-7.29 5.75-1.47 1.78-2.67 3.81-3.53 6.01h40.98c-.86-2.2-2.06-4.23-3.53-6.01z" fill="#4fc1e9"/></g><g><path d="m35 10c-1.1 0-2-.9-2-2 0-.14.01-.27.04-.4.19-.91 1-1.6 1.96-1.6 1.1 0 2 .9 2 2 0 .61-.28 1.16-.71 1.52-.35.3-.8.48-1.29.48z" fill="#fc6e51"/></g><g><path d="m30 4c1.66 0 3 1.34 3 3 0 .2-.02.4-.06.59-.27 1.37-1.48 2.41-2.94 2.41-.87 0-1.65-.37-2.2-.96-.49-.53-.8-1.25-.8-2.04 0-1.66 1.34-3 3-3z" fill="#ff826e"/></g></g><g><path d="m58 19h-18.92l-1.719-9.171c.394-.508.639-1.137.639-1.829 0-1.302-.839-2.402-2-2.816v-4.184h-2v4.184c-.128.046-.249.1-.368.161-.496-1.082-1.459-1.898-2.632-2.203v-2.142h-2v2.142c-1.72.447-3 2-3 3.858 0 .858.277 1.649.739 2.301l-1.819 9.699h-18.92c-2.757 0-5 2.243-5 5v26c0 2.757 2.243 5 5 5h3v2h-1c-1.654 0-3 1.346-3 3v3h16v-3c0-1.654-1.346-3-3-3h-1v-2h30v2h-1c-1.654 0-3 1.346-3 3v3h16v-3c0-1.654-1.346-3-3-3h-1v-2h3c2.757 0 5-2.243 5-5v-26c0-2.757-2.243-5-5-5zm-28-8c1.05 0 2-.415 2.714-1.08.551.655 1.366 1.08 2.286 1.08.183 0 .361-.022.535-.054l.385 2.054h-7.84l.43-2.294c.461.186.963.294 1.49.294zm5-4c.551 0 1 .449 1 1s-.449 1-1 1-1-.449-1-1 .449-1 1-1zm-7.563 30.499c-1.127 1.357-2.088 3.228-2.828 5.501h-7.316c2.776-2.734 6.273-4.653 10.144-5.501zm4.563-.499c2.011 0 3.935 2.343 5.255 6h-10.51c1.32-3.657 3.244-6 5.255-6zm4.563.499c3.87.849 7.368 2.767 10.144 5.501h-7.316c-.74-2.274-1.701-4.145-2.828-5.501zm-4.563-2.499c-2.922 0-5.735.544-8.335 1.547l.28-1.495 8.055-10.252 8.055 10.251.28 1.495c-2.6-1.002-5.413-1.546-8.335-1.546zm1.271-11.818 3.68-4.683 2.307 12.302zm-5.566-8.182h8.59l.166.886-4.461 5.678-4.461-5.678zm3.024 8.182-5.986 7.619 2.307-12.302zm-9.288 14.371c-4.665 2.401-8.438 6.383-10.59 11.447h-3.851v-24h16.795zm-5.943 7.447h8.54c-.304 1.243-.543 2.583-.719 4h-10.288c.682-1.442 1.512-2.78 2.467-4zm10.619 0h11.765c.331 1.237.596 2.581.784 4h-13.333c.188-1.419.453-2.763.784-4zm14.564 4c-.176-1.417-.415-2.757-.719-4h8.54c.955 1.22 1.785 2.558 2.467 4zm12.467 0c-2.152-5.064-5.924-9.046-10.59-11.447l-2.353-12.553h16.795v24zm-23.148-44c1.103 0 2 .897 2 2s-.897 2-2 2-2-.897-2-2 .897-2 2-2zm-11 55v1h-12v-1c0-.551.449-1 1-1h10c.551 0 1 .449 1 1zm-4-3h-4v-2h4zm42 3v1h-12v-1c0-.551.449-1 1-1h10c.551 0 1 .449 1 1zm-4-3h-4v-2h4zm8-7c0 1.654-1.346 3-3 3h-52c-1.654 0-3-1.346-3-3v-26c0-1.654 1.346-3 3-3h18.545l-.375 2h-17.17c-1.103 0-2 .897-2 2v24c0 1.103.897 2 2 2h50c1.103 0 2-.897 2-2v-24c0-1.103-.897-2-2-2h-17.17l-.375-2h18.545c1.654 0 3 1.346 3 3z"/><path d="m22.293 8.707c-.189-.189-.293-.44-.293-.707s.104-.518.293-.707l-1.414-1.415c-.567.567-.879 1.321-.879 2.122s.312 1.555.879 2.122z"/><path d="m19.464 11.536c-1.949-1.95-1.949-5.122 0-7.071l-1.414-1.415c-2.729 2.729-2.729 7.17 0 9.899z"/><path d="m43.121 10.122c.567-.567.879-1.321.879-2.122s-.312-1.555-.879-2.122l-1.414 1.415c.189.189.293.44.293.707s-.104.518-.293.707z"/><path d="m45.95 12.95c2.729-2.729 2.729-7.17 0-9.899l-1.414 1.414c1.949 1.95 1.949 5.122 0 7.071z"/></g></g></svg>